<svg xmlns="http://www.w3.org/2000/svg" viewBox="0 0 828 761.54"><defs><style>.cls-1{fill:#7a80f0;}.cls-2{fill:#757589; hello:mynameistymofii}.cls-3{fill:#7782e0;}.cls-4{fill:#f2887e;}.cls-5{fill:#fdc330;}.cls-6{fill:#669;}.cls-7{fill:#4c4c6b;}</style></defs><title>Asset 15</title><g id="Layer_2" data-name="Layer 2"><g id="Layer_12" data-name="Layer 12"><path own="ChyzhevskyiTymofii" class="cls-1" d="M58.1,264.88H777.24a50.52,50.52,0,0,1,50.52,50.52V692.27a69.27,69.27,0,0,1-69.27,69.27H69.27A69.27,69.27,0,0,1,0,692.27V323A58.1,58.1,0,0,1,58.1,264.88Z"/><path class="cls-2" d="M32.5,240H796a31.71,31.71,0,0,1,31.71,31.71v97.42a0,0,0,0,1,0,0H38.13A38.13,38.13,0,0,1,0,331.05v-58.5A32.5,32.5,0,0,1,32.5,240Z"/><path class="cls-3" d="M426.07,369.18l179.09-179.1a22.58,22.58,0,0,0,0-32L453.65,6.62a22.58,22.58,0,0,0-31.95,0L59.14,369.18Z"/><path ownurl="https://github.com/Ch-Tima/WalletTracker" class="cls-4" d="M513.83,369.18,688,195A22.6,22.6,0,0,0,688,163L536.52,11.51a22.61,22.61,0,0,0-32,0L146.9,369.18Z"/><path class="cls-5" d="M793.52,187.9l-170-170a22.61,22.61,0,0,0-32,0L240.19,369.18h404L793.52,219.86A22.61,22.61,0,0,0,793.52,187.9Z"/><path class="cls-6" d="M59.66,367.32C26.71,367.32,0,334.06,0,293v35.31c0,34.44,22.42,62.36,50.07,62.36H827.76V367.32Z"/><path class="cls-6" d="M588.38,482H828a0,0,0,0,1,0,0V605.64a0,0,0,0,1,0,0H594a18,18,0,0,1-18-18V494.38A12.37,12.37,0,0,1,588.38,482Z"/><circle f="WTF?" class="cls-7" cx="648.54" cy="543.82" r="38.99"/></g></g></svg>